<svg xmlns="http://www.w3.org/2000/svg" width="394" height="214" viewBox="0 0 394 214" role="img" aria-labelledby="languages-title languages-desc">
  <title id="languages-title">KangDohwa repository languages</title>
  <desc id="languages-desc">Language distribution by bytes across personal repositories and 7 owner organizations, including explicitly selected forks. This is not coding time or proficiency.</desc>
  <defs><style>
      text { font-family: Inter, "Segoe UI", Arial, sans-serif; }
      .card { fill: #ffffff; stroke: #e2e8f0; }
      .title { fill: #0f172a; font-weight: 700; }
      .subtitle, .label { fill: #64748b; }
      .value, .language { fill: #1e293b; font-weight: 600; }
      .track { fill: #e2e8f0; }
      @media (prefers-color-scheme: dark) {
        .card { fill: #0d1117; stroke: #30363d; }
        .title { fill: #f0f6fc; }
        .subtitle, .label { fill: #8b949e; }
        .value, .language { fill: #c9d1d9; }
        .track { fill: #30363d; }
      }
    </style></defs>
  <rect class="card" x="0.5" y="0.5" width="393" height="213" rx="12"/>
  <text class="title" x="24" y="34" font-size="19">Repository Languages</text>
  <text class="subtitle" x="24" y="55" font-size="11">Current repository contents · Measured by bytes</text>
  <rect class="track" x="154" y="65" width="150" height="8" rx="4"/><rect x="154" y="65" width="78.8" height="8" rx="4" fill="#DA5B0B"/><circle cx="28" cy="73" r="5" fill="#DA5B0B"/><text class="language" x="42" y="77" font-size="13">Jupyter Notebook</text><text class="label" x="366" y="77" font-size="12" text-anchor="end">52.6%</text><rect class="track" x="154" y="86" width="150" height="8" rx="4"/><rect x="154" y="86" width="51.8" height="8" rx="4" fill="#178600"/><circle cx="28" cy="94" r="5" fill="#178600"/><text class="language" x="42" y="98" font-size="13">C#</text><text class="label" x="366" y="98" font-size="12" text-anchor="end">34.5%</text><rect class="track" x="154" y="107" width="150" height="8" rx="4"/><rect x="154" y="107" width="5.3" height="8" rx="4" fill="#3178c6"/><circle cx="28" cy="115" r="5" fill="#3178c6"/><text class="language" x="42" y="119" font-size="13">TypeScript</text><text class="label" x="366" y="119" font-size="12" text-anchor="end">3.6%</text><rect class="track" x="154" y="128" width="150" height="8" rx="4"/><rect x="154" y="128" width="5.0" height="8" rx="4" fill="#3572A5"/><circle cx="28" cy="136" r="5" fill="#3572A5"/><text class="language" x="42" y="140" font-size="13">Python</text><text class="label" x="366" y="140" font-size="12" text-anchor="end">3.4%</text><rect class="track" x="154" y="149" width="150" height="8" rx="4"/><rect x="154" y="149" width="4.7" height="8" rx="4" fill="#dea584"/><circle cx="28" cy="157" r="5" fill="#dea584"/><text class="language" x="42" y="161" font-size="13">Rust</text><text class="label" x="366" y="161" font-size="12" text-anchor="end">3.2%</text><rect class="track" x="154" y="170" width="150" height="8" rx="4"/><rect x="154" y="170" width="1.4" height="8" rx="4" fill="#f34b7d"/><circle cx="28" cy="178" r="5" fill="#f34b7d"/><text class="language" x="42" y="182" font-size="13">C++</text><text class="label" x="366" y="182" font-size="12" text-anchor="end">0.9%</text>
  <text class="subtitle" x="24" y="202" font-size="11">Updated: 2026-10-09 UTC</text>
</svg>
